<svg width="24" height="24" viewBox="0 0 24 24" fill="none" xmlns="http://www.w3.org/2000/svg">
<path d="M22.0859 11.4209L21.0355 11.5809L20.6699 9.17996L21.7203 9.02001L22.0859 11.4209Z" fill="black"/>
<path d="M19.4367 8.13945L20.4871 7.97951L20.6699 9.17996L19.6195 9.3399L19.4367 8.13945Z" fill="black"/>
<path d="M18.2035 7.09895L19.2539 6.939L19.4367 8.13945L18.3863 8.2994L18.2035 7.09895Z" fill="black"/>
<path fill-rule="evenodd" clip-rule="evenodd" d="M19.3003 14.3016L10.8971 15.5812L9.80039 8.3785L18.2035 7.09895L18.0207 5.8985L12.7688 6.69822L12.586 5.49777L11.5356 5.65771L11.3528 4.45726L10.3024 4.61721L10.1196 3.41676L6.96843 3.89659L7.15123 5.09704L6.10083 5.25698L6.28363 6.45743L7.33402 6.29749L7.51681 7.49793L8.5672 7.33799L8.75 8.53844L6.64921 8.85833L6.832 10.0588L5.78161 10.2187L5.9644 11.4192L4.91401 11.5791L5.2796 13.98L6.32999 13.8201L6.51278 15.0205L7.56317 14.8606L7.74597 16.061L9.84675 15.7411L10.0295 16.9416L8.97915 17.1015L9.16195 18.302L8.11155 18.4619L8.29435 19.6624L9.34474 19.5024L9.52753 20.7029L12.6787 20.223L12.4959 19.0226L13.5463 18.8626L13.3635 17.6622L14.4139 17.5023L14.2311 16.3018L19.4831 15.5021L19.3003 14.3016ZM13.3635 17.6622L12.3131 17.8221L12.4959 19.0226L9.34474 19.5024L9.16195 18.302L10.2123 18.142L10.0295 16.9416L13.1807 16.4617L13.3635 17.6622ZM7.56317 14.8606L7.38038 13.6601L6.32999 13.8201L5.9644 11.4192L7.0148 11.2592L6.832 10.0588L8.93279 9.73889L9.66396 14.5407L7.56317 14.8606ZM8.5672 7.33799L8.38441 6.13754L7.33402 6.29749L7.15123 5.09704L10.3024 4.61721L10.4852 5.81765L11.5356 5.65771L11.7184 6.85816L8.5672 7.33799Z" fill="black"/>
<path d="M20.1679 12.9412L20.3507 14.1417L19.3003 14.3016L19.1175 13.1012L20.1679 12.9412Z" fill="black"/>
<path d="M20.1679 12.9412L21.2183 12.7813L21.0355 11.5809L19.9851 11.7408L20.1679 12.9412Z" fill="black"/>
<path d="M17.5187 9.65979L15.4179 9.97967L15.2351 8.77923L17.3359 8.45934L17.5187 9.65979Z" fill="black"/>
<path d="M17.8843 12.0607L17.5187 9.65979L18.5691 9.49984L18.9347 11.9007L17.8843 12.0607Z" fill="black"/>
<path d="M15.7835 12.3806L17.8843 12.0607L18.0671 13.2611L15.9663 13.581L15.7835 12.3806Z" fill="black"/>
<path d="M15.7835 12.3806L15.4179 9.97967L14.3675 10.1396L14.7331 12.5405L15.7835 12.3806Z" fill="black"/>
<path fill-rule="evenodd" clip-rule="evenodd" d="M20.9548 9.13318L21.2897 11.5864L20.2099 11.7338L20.3773 12.9605L19.2975 13.1079L19.4649 14.3345L10.8262 15.5137L9.82158 8.15386L18.4603 6.9747L18.6277 8.20133L19.7076 8.05394L19.875 9.28057L20.9548 9.13318ZM14.4758 10.0175L15.5556 9.87015L15.8905 12.3234L14.8107 12.4708L14.4758 10.0175ZM18.0502 12.0286L18.2176 13.2553L16.0579 13.5501L15.8905 12.3234L18.0502 12.0286ZM18.0502 12.0286L19.13 11.8812L18.7952 9.42797L17.7153 9.57536L17.5479 8.34873L15.3882 8.64352L15.5556 9.87015L17.7153 9.57536L18.0502 12.0286Z" fill="#FFE600"/>
<path d="M8.57431 7.07462L8.40687 5.84798L7.32704 5.99537L7.1596 4.76874L10.3991 4.32655L10.5666 5.55319L11.6464 5.40579L11.8138 6.63243L8.57431 7.07462Z" fill="#FFE600"/>
<path d="M12.4083 19.0462L12.2409 17.8195L13.3207 17.6721L13.1533 16.4455L9.91376 16.8877L10.0812 18.1143L9.00136 18.2617L9.16879 19.4884L12.4083 19.0462Z" fill="#FFE600"/>
<path d="M8.90917 9.52789L9.5789 14.4344L7.41922 14.7292L7.25179 13.5026L6.17195 13.65L5.83708 11.1967L6.91692 11.0493L6.74949 9.82268L8.90917 9.52789Z" fill="#FFE600"/>
</svg>
