<svg width="50" height="50" viewBox="0 0 50 50" fill="none" xmlns="http://www.w3.org/2000/svg">
<path d="M16.6665 12.5H10.4165V20.8333H12.4998V22.9166H16.6665V25H18.7498V27.0833H20.8332V29.1666H22.9165V31.25H20.8332V33.3333H18.7498V35.4166H16.6665V37.5H33.3332V35.4166H31.2498V33.3333H29.1665V31.25H27.0832V29.1666H29.1665V27.0833H31.2498V25H33.3332V22.9166H37.4998V20.8333H39.5832V12.5H33.3332V10.4166H16.6665V12.5Z" fill="#FFE600"/>
<path d="M39.5833 22.9166H37.4999V20.8333H39.5833V22.9166Z" fill="black"/>
<path d="M33.3333 27.0833H31.2499V25H33.3333V27.0833Z" fill="black"/>
<path d="M31.2499 29.1666H29.1666V27.0833H31.2499V29.1666Z" fill="black"/>
<path d="M31.2499 33.3333H29.1666V31.25H31.2499V33.3333Z" fill="black"/>
<path d="M33.3333 35.4166H31.2499V33.3333H33.3333V35.4166Z" fill="black"/>
<path d="M35.4166 37.5H33.3333V35.4166H35.4166V37.5Z" fill="black"/>
<path d="M16.6666 37.5H14.5833V35.4166H16.6666V37.5Z" fill="black"/>
<path d="M18.7499 35.4166H16.6666V33.3333H18.7499V35.4166Z" fill="black"/>
<path d="M20.8333 33.3333H18.7499V31.25H20.8333V33.3333Z" fill="black"/>
<path d="M20.8333 29.1666H18.7499V27.0833H20.8333V29.1666Z" fill="black"/>
<path d="M18.7499 27.0833H16.6666V25H18.7499V27.0833Z" fill="black"/>
<path d="M12.4999 22.9166H10.4166V20.8333H12.4999V22.9166Z" fill="black"/>
<path d="M20.8333 31.25H22.9166V29.1666H20.8333V31.25Z" fill="black"/>
<path d="M27.0833 31.25H29.1666V29.1666H27.0833V31.25Z" fill="black"/>
<path d="M16.6666 8.33331V10.4166H33.3333V8.33331H16.6666Z" fill="black"/>
<path d="M10.4166 10.4166V12.5H16.6666V10.4166H10.4166Z" fill="black"/>
<path d="M12.4999 14.5833H14.5833V18.75H12.4999V14.5833Z" fill="black"/>
<path d="M10.4166 12.5H8.33325V20.8333H10.4166V12.5Z" fill="black"/>
<path d="M37.4999 18.75H35.4166V14.5833H37.4999V18.75Z" fill="black"/>
<path d="M33.3333 10.4166V12.5H39.5833V10.4166H33.3333Z" fill="black"/>
<path d="M41.6666 12.5H39.5833V20.8333H41.6666V12.5Z" fill="black"/>
<path d="M37.4999 25V22.9166H33.3333V25H37.4999Z" fill="black"/>
<path d="M16.6666 25V22.9166H12.4999V25H16.6666Z" fill="black"/>
<path d="M33.3333 39.5833V37.5H16.6666V39.5833H33.3333Z" fill="black"/>
</svg>
