<svg width="302" height="153" viewBox="0 0 302 153" fill="none" xmlns="http://www.w3.org/2000/svg">
<path d="M21.3643 78.6618L20.4845 71.2135L13.0363 72.0933L12.1565 64.6451L4.7083 65.5249L2.06892 43.1802L9.51713 42.3005L8.63734 34.8522L16.0856 33.9724L15.2058 26.5242L44.9986 23.005L45.8784 30.4533L53.3267 29.5735L54.2064 37.0217L39.31 38.7813L38.4302 31.3331L23.5338 33.0926L24.4136 40.5409L16.9654 41.4207L19.6047 63.7653L27.053 62.8855L27.9328 70.3337L42.8292 68.5742L41.9494 61.1259L56.8458 59.3663L57.7256 66.8146L50.2774 67.6944L51.1572 75.1426L21.3643 78.6618ZM66.0536 73.383L61.6547 36.1419L69.1029 35.2621L68.2231 27.8139L75.6713 26.9341L74.7915 19.4859L97.1362 16.8465L98.016 24.2947L105.464 23.4149L106.344 30.8631L113.792 29.9833L118.191 67.2244L103.295 68.984L101.535 54.0876L79.1905 56.727L80.9501 71.6234L66.0536 73.383ZM78.3107 49.2787L100.655 46.6394L98.8958 31.7429L91.4475 32.6227L90.5677 25.1745L83.1195 26.0543L83.9993 33.5025L76.5511 34.3823L78.3107 49.2787ZM125.639 66.3446L119.481 14.2071L164.17 8.92833L165.05 16.3765L172.498 15.4967L175.138 37.8414L160.241 39.601L161.121 47.0492L168.569 46.1694L169.449 53.6176L176.897 52.7378L177.777 60.1861L155.432 62.8254L154.552 55.3772L147.104 56.257L146.224 48.8088L138.776 49.6886L140.536 64.585L125.639 66.3446ZM137.896 42.2404L152.793 40.4808L151.913 33.0326L159.361 32.1528L157.602 17.2563L135.257 19.8957L137.896 42.2404ZM207.57 56.6669L202.291 11.9776L187.395 13.7372L186.515 6.28895L231.204 1.01018L232.084 8.45839L217.187 10.218L222.466 54.9073L207.57 56.6669Z" fill="white"/>
<path d="M122.323 144.796L116 92.6781L160.672 87.2586L161.576 94.704L169.021 93.8007L170.828 108.692L163.382 109.595L164.285 117.04L171.731 116.137L173.537 131.028L166.092 131.931L166.995 139.376L122.323 144.796ZM133.601 113.208L155.937 110.498L154.13 95.6072L131.794 98.317L133.601 113.208ZM136.31 135.544L158.647 132.834L156.84 117.943L134.504 120.653L136.31 135.544ZM189.331 136.667L188.428 129.221L203.319 127.415L198.803 90.1877L183.912 91.9942L183.009 84.5488L227.681 79.1293L228.584 86.5747L213.694 88.3812L218.21 125.608L233.101 123.802L234.004 131.247L189.331 136.667ZM263.786 127.634L258.366 82.9617L243.475 84.7682L242.572 77.3228L287.244 71.9032L288.148 79.3487L273.257 81.1552L278.676 125.828L263.786 127.634Z" fill="white"/>
<path d="M106.706 13.0535L68.3044 17.1034L69.6676 28.5621L65.8427 28.9654L67.4562 44.2651L71.1281 43.8779L71.6845 47.6867L75.5094 47.2833L75.9127 51.1082L83.5625 50.3015L83.9659 54.1264L99.2654 52.5129L98.862 48.688L106.512 47.8812L106.108 44.0563L109.933 43.6529L109.53 39.828L113.355 39.4246L111.741 24.1249L107.916 24.5283L106.706 13.0535Z" fill="#FF0000"/>
<path d="M78.1232 35.405L78.5265 39.2299L82.3514 38.8265L81.948 35.0016L78.1232 35.405Z" fill="white"/>
<path d="M93.4236 33.7914L93.826 37.6164L97.6518 37.2129L97.2475 33.3881L93.4236 33.7914Z" fill="white"/>
<path fill-rule="evenodd" clip-rule="evenodd" d="M107.916 24.5283L105.898 5.4035L98.2497 6.21039L98.653 10.0353L94.8282 10.4387L95.2316 14.2636L76.1062 16.2804L75.7029 12.4554L71.878 12.8588L71.4746 9.03389L63.8259 9.84053L65.8418 28.9653L62.0169 29.3689L63.6315 44.6685L67.4564 44.2648L67.8597 48.0898L71.6846 47.6864L72.088 51.5113L75.9118 51.1081L76.3152 54.933L83.966 54.1261L84.3694 57.951L95.8439 56.7412L95.4405 52.9162L103.09 52.1095L102.686 48.2844L106.512 47.8812L106.107 44.0563L109.932 43.653L109.529 39.828L113.355 39.4246L111.741 24.1249L107.916 24.5283ZM107.916 24.5283L109.529 39.828L105.705 40.2313L106.107 44.0563L102.283 44.4596L102.686 48.2844L95.0371 49.0911L95.4405 52.9162L91.6156 53.3196L90.8088 45.6695L92.7213 45.4678L92.3179 41.6429L84.6682 42.4497L85.0716 46.2748L86.983 46.073L87.7898 53.7228L83.966 54.1261L83.5626 50.3012L75.9118 51.1081L75.5084 47.2831L71.6846 47.6864L71.2812 43.8615L67.4564 44.2648L65.8418 28.9653L69.6667 28.5621L68.4571 17.0871L72.2814 16.6837L72.6848 20.5087L76.5096 20.1053L76.913 23.9302L80.7379 23.5268L80.3345 19.7019L84.1594 19.2985L84.5628 23.1235L88.3886 22.72L87.9852 18.8951L91.81 18.4917L92.2134 22.3168L96.0374 21.9133L95.6349 18.0885L99.4598 17.6852L99.0564 13.8602L102.881 13.4566L104.091 24.9316L107.916 24.5283Z" fill="white"/>
</svg>
