<svg width="40" height="40" viewBox="0 0 40 40" fill="none" xmlns="http://www.w3.org/2000/svg">
<path d="M25 10H15V11.6667H11.6667V15H10V25H11.6667V28.3333H15V30H25V28.3333H28.3333V25H30V15H28.3333V11.6667H25V10Z" fill="#F579DA"/>
<path d="M14.9999 23.3333H16.6666V25H14.9999V23.3333Z" fill="black"/>
<path d="M24.9999 23.3333H23.3333V25H24.9999V23.3333Z" fill="black"/>
<path d="M14.9999 15H16.6666V16.6666H14.9999V15Z" fill="black"/>
<path d="M24.9999 15H23.3333V16.6666H24.9999V15Z" fill="black"/>
<path d="M16.6666 16.6666H18.3333V18.3333H16.6666V16.6666Z" fill="black"/>
<path d="M23.3333 16.6666H21.6666V18.3333H23.3333V16.6666Z" fill="black"/>
<path d="M13.3333 16.6666H14.9999V18.3333H13.3333V16.6666Z" fill="black"/>
<path d="M26.6666 16.6666H24.9999V18.3333H26.6666V16.6666Z" fill="black"/>
<path d="M14.9999 30V31.6666H24.9999V30H14.9999Z" fill="black"/>
<path d="M23.3333 26.6666V25H16.6666V26.6666H23.3333Z" fill="black"/>
<path d="M11.6666 28.3333V30H14.9999V28.3333H11.6666Z" fill="black"/>
<path d="M11.6666 25H9.99992V28.3333H11.6666V25Z" fill="black"/>
<path d="M8.33325 25H9.99992V15H8.33325V25Z" fill="black"/>
<path d="M9.99992 15H11.6666V11.6666H9.99992L9.99992 15Z" fill="black"/>
<path d="M11.6666 9.99998V11.6666H14.9999V9.99998H11.6666Z" fill="black"/>
<path d="M14.9999 8.33331V9.99998H24.9999V8.33331H14.9999Z" fill="black"/>
<path d="M28.3333 11.6666V9.99998H24.9999V11.6666H28.3333Z" fill="black"/>
<path d="M28.3333 15H29.9999V11.6666H28.3333V15Z" fill="black"/>
<path d="M29.9999 25H31.6666V15H29.9999V25Z" fill="black"/>
<path d="M29.9999 25H28.3333V28.3333H29.9999V25Z" fill="black"/>
<path d="M28.3333 30V28.3333H24.9999V30H28.3333Z" fill="black"/>
</svg>
