<svg width="30" height="30" viewBox="0 0 30 30" fill="none" xmlns="http://www.w3.org/2000/svg">
<path d="M28.125 20.625V9.375H26.25V5.625H24.375V3.75H20.625V1.875H9.375V3.75H5.625V5.625H3.75V9.375H1.875V20.625H3.75V24.375H5.625V26.25H9.375V28.125H20.625V26.25H24.375V24.375H26.25V20.625H28.125Z" fill="#D67300"/>
<path d="M18.75 9.37495H20.625V11.2499H18.75V9.37495Z" fill="black"/>
<path d="M18.75 18.75L20.625 18.75L20.625 20.625L18.75 20.6249L18.75 18.75Z" fill="black"/>
<path d="M9.37498 18.75L11.25 18.75L11.25 20.6249L9.37499 20.625L9.37498 18.75Z" fill="black"/>
<path d="M24.375 3.74995L26.25 3.75L26.25 5.625L24.375 5.625L24.375 3.74995Z" fill="black"/>
<path d="M24.375 24.375L26.25 24.375L26.25 26.25H24.375V24.375Z" fill="black"/>
<path d="M3.75 24.375H5.625L5.62501 26.25L3.75 26.25V24.375Z" fill="black"/>
<path d="M3.75 3.75L5.625 3.74997L5.625 5.625L3.74997 5.625L3.75 3.75Z" fill="black"/>
<path d="M9.375 9.375L11.25 9.37498L11.25 11.25L9.37498 11.25L9.375 9.375Z" fill="black"/>
<path d="M15 11.25H16.875V13.125L15 13.125L15 11.25Z" fill="black"/>
<path d="M9.37499 0V1.875H20.625V0H9.37499Z" fill="black"/>
<path d="M5.625 1.87498V3.74997L9.37499 3.74995L9.37499 1.875L5.625 1.87498Z" fill="black"/>
<path d="M20.625 1.875L20.625 3.74995H24.375V1.87495L20.625 1.875Z" fill="black"/>
<path d="M28.125 5.625H26.25L26.25 9.37495L28.125 9.37495L28.125 5.625Z" fill="black"/>
<path d="M3.74997 5.625H1.87498L1.875 9.37495L3.74999 9.37495L3.74997 5.625Z" fill="black"/>
<path d="M1.875 9.37495H0V20.625H1.875V9.37495Z" fill="black"/>
<path d="M7.49998 18.75H9.37498V11.25H7.49998V18.75Z" fill="black"/>
<path d="M11.25 7.49998V9.37498L18.75 9.37495L18.75 7.49998H11.25Z" fill="black"/>
<path d="M22.5 11.25L20.625 11.2499L20.625 18.75H22.5V11.25Z" fill="black"/>
<path d="M13.125 16.875H15V13.125H13.125V16.875Z" fill="black"/>
<path d="M18.75 22.4999V20.6249H11.25V22.4999H18.75Z" fill="black"/>
<path d="M28.125 20.625H30V9.37495H28.125V20.625Z" fill="black"/>
<path d="M26.25 24.375H28.125L28.125 20.625L26.25 20.625L26.25 24.375Z" fill="black"/>
<path d="M20.625 26.25L20.625 28.125L24.375 28.125L24.375 26.25L20.625 26.25Z" fill="black"/>
<path d="M9.37499 28.125V30H20.625V28.125H9.37499Z" fill="black"/>
<path d="M9.37499 28.125L9.37499 26.25H5.62501V28.125L9.37499 28.125Z" fill="black"/>
<path d="M3.74999 20.625L1.875 20.625L1.87499 24.375L3.75 24.375L3.74999 20.625Z" fill="black"/>
</svg>
