<svg width="50" height="50" viewBox="0 0 50 50" fill="none" xmlns="http://www.w3.org/2000/svg">
<path d="M31.2499 14.5833V16.6666H18.7499V14.5833H10.4166V16.6666H8.33325V33.3333H10.4166V35.4166H16.6666V31.25H18.7499V29.1666H20.8333V27.0833H29.1666V29.1666H31.2499V31.25H33.3333V35.4166H39.5833V33.3333H41.6666V16.6666H39.5833V14.5833H31.2499Z" fill="#D9D9D9"/>
<path d="M18.75 29.1667H20.8333V31.25H18.75V29.1667Z" fill="black"/>
<path d="M29.1667 29.1667H31.25V31.25H29.1667V29.1667Z" fill="black"/>
<path d="M10.4167 20.8333H12.5V22.9167H10.4167V20.8333Z" fill="black"/>
<path d="M18.75 29.1667H20.8333V31.25H18.75V29.1667Z" fill="black"/>
<path d="M8.33333 14.5833H10.4167V16.6667H8.33333V14.5833Z" fill="black"/>
<path d="M39.5833 14.5833H41.6667V16.6667H39.5833V14.5833Z" fill="black"/>
<path d="M29.1667 29.1667H31.25V31.25H29.1667V29.1667Z" fill="black"/>
<path d="M35.4167 22.9167H37.5V25H35.4167V22.9167Z" fill="black"/>
<path d="M37.5 20.8333H39.5833V22.9167H37.5V20.8333Z" fill="black"/>
<path d="M39.5833 33.3333H41.6667V35.4167H39.5833V33.3333Z" fill="black"/>
<path d="M8.33333 33.3333H10.4167V35.4167H8.33333V33.3333Z" fill="black"/>
<path d="M12.5 18.75H14.5833V20.8333H12.5V18.75Z" fill="black"/>
<path d="M14.5833 20.8333H16.6667V22.9167H14.5833V20.8333Z" fill="black"/>
<path d="M12.5 22.9167H14.5833V25H12.5V22.9167Z" fill="black"/>
<path d="M33.3333 20.8333H35.4167L35.4167 22.9167L33.3333 22.9167V20.8333Z" fill="black"/>
<path d="M35.4167 18.75H37.5L37.5 20.8333L35.4167 20.8333L35.4167 18.75Z" fill="black"/>
<path d="M20.8333 27.0833V29.1667H29.1667L29.1667 27.0833H20.8333Z" fill="black"/>
<path d="M16.6667 35.4167L18.75 35.4167L18.75 31.25L16.6667 31.25L16.6667 35.4167Z" fill="black"/>
<path d="M16.6667 37.5V35.4167L10.4167 35.4167V37.5L16.6667 37.5Z" fill="black"/>
<path d="M8.33333 16.6667H6.25V33.3333H8.33333V16.6667Z" fill="black"/>
<path d="M10.4167 12.5V14.5833H18.75V12.5H10.4167Z" fill="black"/>
<path d="M31.25 16.6667V14.5833H18.75V16.6667H31.25Z" fill="black"/>
<path d="M39.5833 14.5833V12.5H31.25V14.5833H39.5833Z" fill="black"/>
<path d="M43.75 16.6667H41.6667V33.3333H43.75V16.6667Z" fill="black"/>
<path d="M33.3333 35.4167L33.3333 37.5L39.5833 37.5V35.4167L33.3333 35.4167Z" fill="black"/>
<path d="M31.25 35.4167H33.3333V31.25L31.25 31.25L31.25 35.4167Z" fill="black"/>
</svg>
