<svg width="40" height="40" viewBox="0 0 40 40" fill="none" xmlns="http://www.w3.org/2000/svg">
<path d="M19.4444 6.66669H21.1111V8.33335H19.4444V6.66669Z" fill="black"/>
<path d="M21.1111 6.66669H19.4444V8.33335H21.1111V6.66669Z" fill="black"/>
<path d="M7.77775 16.6667H6.11108V18.3334H7.77775V16.6667Z" fill="black"/>
<path d="M32.7778 16.6667H34.4444V18.3334H32.7778V16.6667Z" fill="black"/>
<path d="M12.7778 20H11.1111V21.6667H12.7778V20Z" fill="black"/>
<path d="M27.7778 20H29.4444V21.6667H27.7778V20Z" fill="black"/>
<path d="M17.7778 28.3334H16.1111V30H17.7778V28.3334Z" fill="black"/>
<path d="M22.7778 28.3334H24.4444V30H22.7778V28.3334Z" fill="black"/>
<path d="M19.4444 8.33335H17.7778V11.6667H19.4444V8.33335Z" fill="black"/>
<path d="M22.7778 8.33335H21.1111V11.6667H22.7778V8.33335Z" fill="black"/>
<path d="M24.4444 11.6667H22.7778V15H24.4444V11.6667Z" fill="black"/>
<path d="M17.7778 11.6667H16.1111V15H17.7778V11.6667Z" fill="black"/>
<path d="M16.1111 16.6667V15H7.77775V16.6667H16.1111Z" fill="black"/>
<path d="M24.4444 15V16.6667H32.7778V15H24.4444Z" fill="black"/>
<path d="M29.4444 18.3334V20H32.7778V18.3334H29.4444Z" fill="black"/>
<path d="M27.7778 21.6667H26.1111V25H27.7778V21.6667Z" fill="black"/>
<path d="M14.4444 21.6667H12.7778V25H14.4444V21.6667Z" fill="black"/>
<path d="M27.7778 28.3334H29.4444V25H27.7778V28.3334Z" fill="black"/>
<path d="M29.4444 31.6667H27.7778V33.3334H31.1111V28.3334H29.4444V31.6667Z" fill="black"/>
<path d="M27.7778 31.6667V30H24.4444V31.6667H27.7778Z" fill="black"/>
<path d="M22.7778 28.3334V26.6667H17.7778V28.3334H22.7778Z" fill="black"/>
<path d="M12.7778 30V31.6667H16.1111V30H12.7778Z" fill="black"/>
<path d="M12.7778 31.6667H11.1111V28.3334H9.44442V33.3334H12.7778V31.6667Z" fill="black"/>
<path d="M11.1111 28.3334H12.7778V25H11.1111V28.3334Z" fill="black"/>
<path d="M11.1111 20V18.3334H7.77775V20H11.1111Z" fill="black"/>
<path d="M19.4445 11.6667V8.33337H21.1112V11.6667H22.7778V15H24.4445V16.6667H32.7778V18.3334H29.4445V20H27.7778V21.6667H26.1112V25H27.7778V28.3334H29.4445V31.6667H27.7778V30H24.4445V28.3334H22.7778V26.6667H17.7778V28.3334H16.1112V30H12.7778V31.6667H11.1112V28.3334H12.7778V25H14.4445V21.6667H12.7778V20H11.1112V18.3334H7.77783V16.6667H16.1112V15H17.7778V11.6667H19.4445Z" fill="#FFE600"/>
</svg>
